<?xml version="1.0" encoding="UTF-8"?>
<svg version="1.1" xmlns="http://www.w3.org/2000/svg" width="180" height="180">
<path d="M0 0 C59.4 0 118.8 0 180 0 C180 59.4 180 118.8 180 180 C120.6 180 61.2 180 0 180 C0 120.6 0 61.2 0 0 Z " fill="#FCFCFC" transform="translate(0,0)"/>
<path d="M0 0 C0.99 0 1.98 0 3 0 C3 1.32 3 2.64 3 4 C4.32 4 5.64 4 7 4 C7 3.01 7 2.02 7 1 C7.99 1 8.98 1 10 1 C10 2.32 10 3.64 10 5 C10.99 4.67 11.98 4.34 13 4 C13.33 3.34 13.66 2.68 14 2 C14.99 2 15.98 2 17 2 C17.12375 2.639375 17.2475 3.27875 17.375 3.9375 C17.58125 4.618125 17.7875 5.29875 18 6 C18.66 6.33 19.32 6.66 20 7 C20.33 6.01 20.66 5.02 21 4 C21.99 4 22.98 4 24 4 C24 5.98 24 7.96 24 10 C25.65 9.01 27.3 8.02 29 7 C29.99 9.97 29.99 9.97 31 13 C33.475 12.505 33.475 12.505 36 12 C36 14.66666667 36 17.33333333 36 20 C37.65 19.34 39.3 18.68 41 18 C41.93065133 20.60582371 42.14917407 21.64198224 41.0625 24.25 C40.711875 24.8275 40.36125 25.405 40 26 C41.65 26 43.3 26 45 26 C45 29.10551666 44.4606285 30.35261084 43 33 C44.65 33 46.3 33 48 33 C48 34.32 48 35.64 48 37 C47.01 37 46.02 37 45 37 C45 38.32 45 39.64 45 41 C46.65 41.33 48.3 41.66 50 42 C50 42.66 50 43.32 50 44 C41.42 44 32.84 44 24 44 C23.67 46.64 23.34 49.28 23 52 C20.26865664 57.5249649 16.6302528 60.56875447 11 63 C10.34 63.99 9.68 64.98 9 66 C8.34 66 7.68 66 7 66 C7 64.35 7 62.7 7 61 C8.0725 60.7525 9.145 60.505 10.25 60.25 C13.99649437 59.00116854 15.52073882 57.97511342 18 55 C17.31550781 55.48082031 16.63101563 55.96164063 15.92578125 56.45703125 C12.51263572 58.25702122 10.02307577 58.49378405 6.1875 58.6875 C4.44533203 58.78611328 4.44533203 58.78611328 2.66796875 58.88671875 C1.78753906 58.92410156 0.90710938 58.96148437 0 59 C0.33 59.66 0.66 60.32 1 61 C3.52733235 61.65555119 3.52733235 61.65555119 6 62 C5.34 63.32 4.68 64.64 4 66 C3.67 65.34 3.34 64.68 3 64 C1.7625 63.566875 0.525 63.13375 -0.75 62.6875 C-6.62573026 60.59578207 -10.33280934 56.61513824 -13 51 C-13.1875 48.1875 -13.1875 48.1875 -13 46 C-12.34 46 -11.68 46 -11 46 C-10.67 46.66 -10.34 47.32 -10 48 C-9.67 46.68 -9.34 45.36 -9 44 C-7.82455195 45.43032837 -6.65989738 46.86953242 -5.5 48.3125 C-4.52546875 49.51326172 -4.52546875 49.51326172 -3.53125 50.73828125 C-2 53 -2 53 -2 56 C-1.34 56 -0.68 56 0 56 C0.66 54.02 1.32 52.04 2 50 C4.31 50 6.62 50 9 50 C9.495 52.97 9.495 52.97 10 56 C12.23669149 55.16427096 12.23669149 55.16427096 12.875 52.6875 C14.12809752 49.69398927 15.69237597 48.23318454 18 46 C18.33 45.01 18.66 44.02 19 43 C19.66 43 20.32 43 21 43 C20.76076631 38.9330272 20.40939331 36.54585774 17.9375 33.25 C14.44694967 30.35063539 14.44694967 30.35063539 7 28 C7 21.73 7 15.46 7 9 C-5.04605697 10.40964496 -15.13361934 13.19194428 -23.3671875 22.5546875 C-28.30415281 28.8938678 -30.16200909 36.12288542 -31 44 C-33.64 44 -36.28 44 -39 44 C-39 43.01 -39 42.02 -39 41 C-37.68 41 -36.36 41 -35 41 C-35.495 39.515 -35.495 39.515 -36 38 C-36.66 37.67 -37.32 37.34 -38 37 C-38 35.68 -38 34.36 -38 33 C-36.35 33 -34.7 33 -33 33 C-33.495 31.515 -33.495 31.515 -34 30 C-34.66 29.67 -35.32 29.34 -36 29 C-35.67 28.01 -35.34 27.02 -35 26 C-33.35 26 -31.7 26 -30 26 C-30.66 24.02 -31.32 22.04 -32 20 C-30 19 -30 19 -26 19 C-26.33 17.35 -26.66 15.7 -27 14 C-25 14 -23 14 -21 14 C-21 12.35 -21 10.7 -21 9 C-18.37886292 9 -16.49064888 9.31292445 -14 10 C-14.33 8.35 -14.66 6.7 -15 5 C-14.01 4.67 -13.02 4.34 -12 4 C-11.67 4.66 -11.34 5.32 -11 6 C-10.01 6.33 -9.02 6.66 -8 7 C-8 5.35 -8 3.7 -8 2 C-6.68 2.33 -5.36 2.66 -4 3 C-4 3.66 -4 4.32 -4 5 C-3.01 5 -2.02 5 -1 5 C-0.67 3.35 -0.34 1.7 0 0 Z " fill="#EC4245" transform="translate(86,19)"/>
<path d="M0 0 C0.32871094 1.46759766 0.32871094 1.46759766 0.6640625 2.96484375 C3.33379338 14.25032781 7.11486461 23.18195064 17 30 C21.21340149 32.53752697 24.00227753 34 29 34 C29.33 32.68 29.66 31.36 30 30 C28.7625 29.938125 28.7625 29.938125 27.5 29.875 C20.26251373 28.06562843 13.99168342 22.22371942 10 16 C7.45826795 10.51396343 6 6.08656763 6 0 C9.3 0 12.6 0 16 0 C16.2475 1.36125 16.495 2.7225 16.75 4.125 C18.03042337 9.78909504 20.17590102 13.43648659 24.625 17.25 C28.88757596 19.65812541 28.88757596 19.65812541 38 21 C38 30.57 38 40.14 38 50 C34.7 50 31.4 50 28 50 C28 48.02 28 46.04 28 44 C26.68 44 25.36 44 24 44 C23.34 45.32 22.68 46.64 22 48 C21.34 48 20.68 48 20 48 C20.33 45.69 20.66 43.38 21 41 C19.02 40.34 17.04 39.68 15 39 C14.01 40.32 13.02 41.64 12 43 C8.08597051 41.73058503 6.20927127 40.48832306 4 37 C4.99 35.35 5.98 33.7 7 32 C5.77190909 30.35444301 5.77190909 30.35444301 4 29 C1.96128755 29.1762044 1.96128755 29.1762044 0 30 C-0.99 30.33 -1.98 30.66 -3 31 C-2.690625 30.401875 -2.38125 29.80375 -2.0625 29.1875 C-0.89790296 26.91043228 -0.89790296 26.91043228 0 24 C-0.66 23.01 -1.32 22.02 -2 21 C-4.31 21.33 -6.62 21.66 -9 22 C-9 21.34 -9 20.68 -9 20 C-7.68 19.34 -6.36 18.68 -5 18 C-5 16.02 -5 14.04 -5 12 C-7.31 12.33 -9.62 12.66 -12 13 C-12 12.34 -12 11.68 -12 11 C-10.02 10.67 -8.04 10.34 -6 10 C-6.33 7.69 -6.66 5.38 -7 3 C-9.31 3 -11.62 3 -14 3 C-14 2.34 -14 1.68 -14 1 C-9.23692563 0.04738513 -4.8333472 -0.08333357 0 0 Z " fill="#21AA5F" transform="translate(54,65)"/>
<path d="M0 0 C0 5.94 0 11.88 0 18 C-1.36125 18.391875 -2.7225 18.78375 -4.125 19.1875 C-8.64420251 20.72942916 -11.72297485 22.41087722 -15 26 C-15.99 28.97 -16.98 31.94 -18 35 C-24.27 35 -30.54 35 -37 35 C-37 24.37166312 -33.41726545 16.63671118 -26 9 C-17.85722576 2.18210128 -10.53964159 0 0 0 Z " fill="#3AAFE4" transform="translate(92,28)"/>
<path d="M0 0 C0.99 0 1.98 0 3 0 C3 1.32 3 2.64 3 4 C4.32 4 5.64 4 7 4 C7 3.01 7 2.02 7 1 C7.99 1 8.98 1 10 1 C10 2.32 10 3.64 10 5 C10.99 4.67 11.98 4.34 13 4 C13.33 3.34 13.66 2.68 14 2 C14.99 2 15.98 2 17 2 C17.12375 2.639375 17.2475 3.27875 17.375 3.9375 C17.58125 4.618125 17.7875 5.29875 18 6 C18.66 6.33 19.32 6.66 20 7 C20.33 6.01 20.66 5.02 21 4 C21.99 4 22.98 4 24 4 C24 5.98 24 7.96 24 10 C25.65 9.01 27.3 8.02 29 7 C29.99 9.97 29.99 9.97 31 13 C33.475 12.505 33.475 12.505 36 12 C36 14.66666667 36 17.33333333 36 20 C37.65 19.34 39.3 18.68 41 18 C41.93065133 20.60582371 42.14917407 21.64198224 41.0625 24.25 C40.711875 24.8275 40.36125 25.405 40 26 C41.65 26 43.3 26 45 26 C45 29.10551666 44.4606285 30.35261084 43 33 C44.65 33 46.3 33 48 33 C48 34.32 48 35.64 48 37 C47.01 37 46.02 37 45 37 C45 38.32 45 39.64 45 41 C46.32 41 47.64 41 49 41 C49 41.66 49 42.32 49 43 C46.66705225 43.04241723 44.33297433 43.04092937 42 43 C40.51922264 41.51922264 40.56304263 39.98368085 40.1875 37.9375 C37.99579989 27.9565923 32.6777788 20.17055547 24.41015625 14.09765625 C15.10206591 8.67112896 5.13093505 8.51835979 -5.21484375 10.66796875 C-14.25553403 13.57164066 -22.51639549 19.49174262 -27 28 C-29.21096081 33.22084024 -30.40192464 38.37809158 -31 44 C-33.64 44 -36.28 44 -39 44 C-39 43.01 -39 42.02 -39 41 C-37.68 41 -36.36 41 -35 41 C-35.495 39.515 -35.495 39.515 -36 38 C-36.66 37.67 -37.32 37.34 -38 37 C-38 35.68 -38 34.36 -38 33 C-36.35 33 -34.7 33 -33 33 C-33.495 31.515 -33.495 31.515 -34 30 C-34.66 29.67 -35.32 29.34 -36 29 C-35.67 28.01 -35.34 27.02 -35 26 C-33.35 26 -31.7 26 -30 26 C-30.66 24.02 -31.32 22.04 -32 20 C-30 19 -30 19 -26 19 C-26.33 17.35 -26.66 15.7 -27 14 C-25 14 -23 14 -21 14 C-21 12.35 -21 10.7 -21 9 C-18.37886292 9 -16.49064888 9.31292445 -14 10 C-14.33 8.35 -14.66 6.7 -15 5 C-14.01 4.67 -13.02 4.34 -12 4 C-11.67 4.66 -11.34 5.32 -11 6 C-10.01 6.33 -9.02 6.66 -8 7 C-8 5.35 -8 3.7 -8 2 C-6.68 2.33 -5.36 2.66 -4 3 C-4 3.66 -4 4.32 -4 5 C-3.01 5 -2.02 5 -1 5 C-0.67 3.35 -0.34 1.7 0 0 Z " fill="#353333" transform="translate(86,19)"/>
<path d="M0 0 C2.25738466 3.18689598 2.27175697 6.03952964 1.66796875 9.83984375 C0.00475701 15.21853434 -3.39786951 19.10650415 -8.25 21.8125 C-9.61125 22.4003125 -9.61125 22.4003125 -11 23 C-11.66 23.99 -12.32 24.98 -13 26 C-13.66 26 -14.32 26 -15 26 C-15 24.35 -15 22.7 -15 21 C-13.9275 20.7525 -12.855 20.505 -11.75 20.25 C-8.00350563 19.00116854 -6.47926118 17.97511342 -4 15 C-4.68449219 15.48082031 -5.36898437 15.96164063 -6.07421875 16.45703125 C-9.48736428 18.25702122 -11.97692423 18.49378405 -15.8125 18.6875 C-17.55466797 18.78611328 -17.55466797 18.78611328 -19.33203125 18.88671875 C-20.65267578 18.94279297 -20.65267578 18.94279297 -22 19 C-21.67 19.66 -21.34 20.32 -21 21 C-18.47266765 21.65555119 -18.47266765 21.65555119 -16 22 C-16.66 23.32 -17.32 24.64 -18 26 C-18.33 25.34 -18.66 24.68 -19 24 C-20.2375 23.566875 -21.475 23.13375 -22.75 22.6875 C-28.62573026 20.59578207 -32.33280934 16.61513824 -35 11 C-35.1875 8.1875 -35.1875 8.1875 -35 6 C-34.34 6 -33.68 6 -33 6 C-32.67 6.66 -32.34 7.32 -32 8 C-31.67 6.68 -31.34 5.36 -31 4 C-29.82455195 5.43032837 -28.65989738 6.86953242 -27.5 8.3125 C-26.8503125 9.11300781 -26.200625 9.91351563 -25.53125 10.73828125 C-24 13 -24 13 -24 16 C-23.34 16 -22.68 16 -22 16 C-21.34 14.02 -20.68 12.04 -20 10 C-17.69 10 -15.38 10 -13 10 C-12.67 11.98 -12.34 13.96 -12 16 C-9.76330851 15.16427096 -9.76330851 15.16427096 -9.125 12.6875 C-7.87190248 9.69398927 -6.30762403 8.23318454 -4 6 C-3.67 5.01 -3.34 4.02 -3 3 C-2.34 3 -1.68 3 -1 3 C-0.67 2.01 -0.34 1.02 0 0 Z " fill="#DAF0E4" transform="translate(108,59)"/>
<path d="M0 0 C0.99 0.33 1.98 0.66 3 1 C3.84375 3.546875 3.84375 3.546875 4.5 6.75 C5.40482799 11.1233353 6.62560246 14.22734613 9 18 C9 18.66 9 19.32 9 20 C10.65 20.66 12.3 21.32 14 22 C14 23.32 14 24.64 14 26 C6.7829605 25.63303189 6.7829605 25.63303189 3.0625 22.625 C1 20 1 20 0 17 C0.57634139 21.75481646 2.55068521 24.97048212 5 29 C-1.47630923 29.36658354 -1.47630923 29.36658354 -3.875 27.6875 C-5.93350052 24.59974922 -6.12056067 21.92802509 -6.09765625 18.33203125 C-6.09443359 17.43935547 -6.09121094 16.54667969 -6.08789062 15.62695312 C-6.07951172 14.69818359 -6.07113281 13.76941406 -6.0625 12.8125 C-6.05798828 11.87212891 -6.05347656 10.93175781 -6.04882812 9.96289062 C-6.03704626 7.64186288 -6.02059558 5.32096356 -6 3 C-5.195625 2.690625 -4.39125 2.38125 -3.5625 2.0625 C-1.10919595 1.23664655 -1.10919595 1.23664655 0 0 Z " fill="#EE4245" transform="translate(102,83)"/>
<path d="M0 0 C0 0.33 0 0.66 0 1 C-3.3 1 -6.6 1 -10 1 C-7.46429 12.52595455 -5.05470501 21.06874611 5 28 C7.93226905 29.54114606 10.89707638 30.84358634 14 32 C13.67 33.65 13.34 35.3 13 37 C4.82815016 36.56990264 -1.91075836 31.4996871 -7.375 25.75 C-13.32464119 18.58639161 -15.40902266 11.1601488 -16 2 C-18.31 2 -20.62 2 -23 2 C-23 1.67 -23 1.34 -23 1 C-15.34916042 -0.24911667 -7.72559014 -0.09053426 0 0 Z " fill="#F0F9F4" transform="translate(70,63)"/>
<path d="M0 0 C0.721875 0.185625 1.44375 0.37125 2.1875 0.5625 C4.94567803 1.18364224 4.94567803 1.18364224 7.375 0.375 C11.25778897 -0.17968414 13.51140609 1.28990495 17 3 C16.01 3.495 16.01 3.495 15 4 C14.34647052 5.98296446 14.34647052 5.98296446 13.9375 8.3125 C13.35405091 11.22974544 12.74492633 14.1191787 12 17 C10.37581255 17.08090971 8.75048255 17.13914995 7.125 17.1875 C6.22007813 17.22230469 5.31515625 17.25710937 4.3828125 17.29296875 C3.20332031 17.14794922 3.20332031 17.14794922 2 17 C0 14 0 14 0 11 C-0.66 10.67 -1.32 10.34 -2 10 C-2 9.34 -2 8.68 -2 8 C-1.34 8 -0.68 8 0 8 C0 7.34 0 6.68 0 6 C-0.66 6 -1.32 6 -2 6 C-2 4 -2 4 0 2 C0 1.34 0 0.68 0 0 Z " fill="#FAF6F7" transform="translate(84,51)"/>
<path d="M0 0 C-0.33 0.66 -0.66 1.32 -1 2 C-1.66 2 -2.32 2 -3 2 C-3.309375 2.639375 -3.61875 3.27875 -3.9375 3.9375 C-5.47914905 6.93011287 -5.62001533 6.87333844 -9 8 C-9 8.66 -9 9.32 -9 10 C-8.34 10 -7.68 10 -7 10 C-7 10.66 -7 11.32 -7 12 C-7.66 12 -8.32 12 -9 12 C-9 12.66 -9 13.32 -9 14 C-8.01 14.33 -7.02 14.66 -6 15 C-6.66 15.33 -7.32 15.66 -8 16 C-7.01 16.66 -6.02 17.32 -5 18 C-5 18.66 -5 19.32 -5 20 C-2.36 20.33 0.28 20.66 3 21 C3 21.33 3 21.66 3 22 C1.576875 22.0928125 1.576875 22.0928125 0.125 22.1875 C-0.90625 22.455625 -1.9375 22.72375 -3 23 C-4.45291273 25.46255685 -4.45291273 25.46255685 -5 28 C-5.66 28 -6.32 28 -7 28 C-7.61875 26.6696875 -7.61875 26.6696875 -8.25 25.3125 C-9.94098173 22.11171315 -11.44001672 19.55998328 -14 17 C-16.66928121 16.58129447 -16.66928121 16.58129447 -19 17 C-18.34 16.67 -17.68 16.34 -17 16 C-16.9175 14.96875 -16.835 13.9375 -16.75 12.875 C-15.78349464 7.88138895 -13.72677179 5.35495929 -10 2 C-6.39173844 -0.3092874 -4.10997592 -1.73883597 0 0 Z " fill="#F3F8F9" transform="translate(91,47)"/>
<path d="M0 0 C0.33 1.65 0.66 3.3 1 5 C0.01 5.495 0.01 5.495 -1 6 C-1 4.68 -1 3.36 -1 2 C-1.66 2 -2.32 2 -3 2 C-2.54554036 3.41791408 -2.08625056 4.83428046 -1.625 6.25 C-1.36976562 7.03890625 -1.11453125 7.8278125 -0.8515625 8.640625 C-0.03702877 10.89740652 0.75763511 12.94601717 2 15 C4.80376352 16.12949221 4.80376352 16.12949221 8 17 C10.01470098 17.97004121 12.01922047 18.96244882 14 20 C14.33 19.67 14.66 19.34 15 19 C13.35 18.34 11.7 17.68 10 17 C10 16.34 10 15.68 10 15 C11.32064453 14.81824219 11.32064453 14.81824219 12.66796875 14.6328125 C13.82941406 14.46523437 14.99085937 14.29765625 16.1875 14.125 C17.91033203 13.88136719 17.91033203 13.88136719 19.66796875 13.6328125 C22.68724625 13.05939755 25.20575848 12.25240957 28 11 C27 14 27 14 24.75 15.6875 C21.8635748 17.06511203 20.14826764 17.26985151 17 17 C17 18.65 17 20.3 17 22 C17.66 22.33 18.32 22.66 19 23 C11.2809732 23.47259348 6.24184803 22.24435633 -0.25 17.75 C-4.22360514 13.77639486 -5.8812896 10.17635738 -6.1875 4.5625 C-6.0946875 3.2940625 -6.0946875 3.2940625 -6 2 C-9.3 2 -12.6 2 -16 2 C-16 1.67 -16 1.34 -16 1 C-10.65097076 0.40801257 -5.39115154 -0.14187241 0 0 Z " fill="#E5F1E9" transform="translate(76,63)"/>
<path d="M0 0 C0.66 0 1.32 0 2 0 C2.35191406 0.79664062 2.70382813 1.59328125 3.06640625 2.4140625 C6.96669476 10.7849167 10.62107556 16.01177832 19 20 C17 23 17 23 15.01171875 23.46875 C10.78787468 23.52554118 8.64563698 23.46317436 5.125 20.9375 C0.57820717 14.65222756 -0.94083 8.72168539 -1 1 C-0.67 0.67 -0.34 0.34 0 0 Z " fill="#ED3E41" transform="translate(107,80)"/>
<path d="M0 0 C3.60893528 1.20297843 4.12709994 2.30969103 6.25 5.375 C10.61647388 11.17854124 14.80567951 12.90995144 22 14 C21.6875 15.875 21.6875 15.875 21 18 C17.2626144 20.4915904 15.42668417 20.45793285 11 20 C6.82536687 17.26868964 4.84294674 14.45570385 2.6875 10 C1.91986328 8.453125 1.91986328 8.453125 1.13671875 6.875 C0 4 0 4 0 0 Z " fill="#EE4144" transform="translate(110,76)"/>
<path d="M0 0 C2.38564077 0.57584432 4.66682784 1.22227595 7 2 C13.24687609 2.5393889 18.97371545 1.59561199 25 0 C23.07517084 6.66287016 23.07517084 6.66287016 20 9 C15.93347864 10.35550712 12.16816722 10.89747905 8.09375 9.2109375 C5.07726017 7.53653001 2.06978657 5.80029947 0 3 C0 2.01 0 1.02 0 0 Z " fill="#EE4144" transform="translate(113,67)"/>
<path d="M0 0 C2.84354775 1.8956985 4.2933209 3.09864553 6 6 C5.67 7.32 5.34 8.64 5 10 C1.7 10 -1.6 10 -5 10 C-4.67 7.36 -4.34 4.72 -4 2 C-4.99 2 -5.98 2 -7 2 C-6.67 4.64 -6.34 7.28 -6 10 C-6.99 10 -7.98 10 -9 10 C-9.33 9.34 -9.66 8.68 -10 8 C-10.99 8.33 -11.98 8.66 -13 9 C-14.32 9.33 -15.64 9.66 -17 10 C-16.67 7.03 -16.34 4.06 -16 1 C-15.01 1 -14.02 1 -13 1 C-12.67 2.32 -12.34 3.64 -12 5 C-11.34 5 -10.68 5 -10 5 C-9.814375 4.0409375 -9.814375 4.0409375 -9.625 3.0625 C-9.41875 2.381875 -9.2125 1.70125 -9 1 C-5.98131566 -0.50934217 -3.32702771 -0.17510672 0 0 Z " fill="#B6B5B5" transform="translate(40,152)"/>
<path d="M0 0 C0.66 0 1.32 0 2 0 C4.475 4.455 4.475 4.455 7 9 C5.68 9 4.36 9 3 9 C3 8.34 3 7.68 3 7 C2.01 7 1.02 7 0 7 C0 7.99 0 8.98 0 10 C-2.875 10.125 -2.875 10.125 -6 10 C-6.66 9.34 -7.32 8.68 -8 8 C-8 8.99 -8 9.98 -8 11 C-8.99 11 -9.98 11 -11 11 C-11 8.69 -11 6.38 -11 4 C-11.66 4 -12.32 4 -13 4 C-13 4.99 -13 5.98 -13 7 C-14.32 7.33 -15.64 7.66 -17 8 C-16.67 6.68 -16.34 5.36 -16 4 C-16.33 4 -16.66 4 -17 4 C-17 6.31 -17 8.62 -17 11 C-18.32 10.67 -19.64 10.34 -21 10 C-21 7.36 -21 4.72 -21 2 C-16.05 2 -11.1 2 -6 2 C-5.34 3.98 -4.68 5.96 -4 8 C-3.34 8.33 -2.68 8.66 -2 9 C-1.34 6.03 -0.68 3.06 0 0 Z " fill="#636161" transform="translate(107,131)"/>
<path d="M0 0 C1.299375 0.8971875 1.299375 0.8971875 2.625 1.8125 C3.74881119 2.54349756 4.87381167 3.27267004 6 4 C6.86625 4.5775 7.7325 5.155 8.625 5.75 C13.69569319 7.62803452 18.65075546 7.23370486 24 7 C23.6875 9.375 23.6875 9.375 23 12 C19.89661692 14.06892205 17.97089886 14.59494896 14.26171875 14.51953125 C8.39751678 13.17248658 3.15427542 7.97519783 0 3 C0 2.01 0 1.02 0 0 Z " fill="#ED3E41" transform="translate(112,72)"/>
<path d="M0 0 C0.33 0 0.66 0 1 0 C0.67 2.31 0.34 4.62 0 7 C2.64 7 5.28 7 8 7 C8 7.33 8 7.66 8 8 C7.17757812 8.08636719 6.35515625 8.17273437 5.5078125 8.26171875 C-2.25666271 9.23900258 -8.24825673 11.06947197 -15 15 C-15.99 15.495 -15.99 15.495 -17 16 C-17.66 15.34 -18.32 14.68 -19 14 C-18.34 13.01 -17.68 12.02 -17 11 C-16.34 11 -15.68 11 -15 11 C-15 10.34 -15 9.68 -15 9 C-14.34 9 -13.68 9 -13 9 C-13.33 7.35 -13.66 5.7 -14 4 C-13.01 3.67 -12.02 3.34 -11 3 C-10.67 3.66 -10.34 4.32 -10 5 C-9.01 5.33 -8.02 5.66 -7 6 C-7 4.35 -7 2.7 -7 1 C-5.68 1.33 -4.36 1.66 -3 2 C-3 2.66 -3 3.32 -3 4 C-2.01 4 -1.02 4 0 4 C0 2.68 0 1.36 0 0 Z " fill="#363132" transform="translate(85,20)"/>
<path d="M0 0 C2.33543703 0.99079147 4.10734656 2.2689811 6.0625 3.875 C5.7325 2.885 5.4025 1.895 5.0625 0.875 C7.92974686 1.44844937 8.9239515 1.7364515 11.0625 3.875 C11.0625 2.885 11.0625 1.895 11.0625 0.875 C12.0525 1.205 13.0425 1.535 14.0625 1.875 C13.7325 4.515 13.4025 7.155 13.0625 9.875 C10.0625 8.875 10.0625 8.875 8.875 6.8125 C8.4728125 5.8534375 8.4728125 5.8534375 8.0625 4.875 C8.0625 6.525 8.0625 8.175 8.0625 9.875 C6.7425 9.875 5.4225 9.875 4.0625 9.875 C3.7325 9.215 3.4025 8.555 3.0625 7.875 C2.4025 8.535 1.7425 9.195 1.0625 9.875 C-3.49305556 9.31944444 -3.49305556 9.31944444 -4.9375 7.875 C-5.23982139 5.00294676 -5.31142386 3.43588579 -3.6875 1 C-1.9375 -0.125 -1.9375 -0.125 0 0 Z " fill="#DFDFDF" transform="translate(143.9375,152.125)"/>
<path d="M0 0 C6.24675325 6.07792208 6.24675325 6.07792208 8 9 C7.67 9.99 7.34 10.98 7 12 C6.01 11.67 5.02 11.34 4 11 C7.44450737 13.29633824 9.93812283 13.54016485 14 14 C12.68 14.33 11.36 14.66 10 15 C10.33 15.66 10.66 16.32 11 17 C13.52733235 17.65555119 13.52733235 17.65555119 16 18 C15.34 19.32 14.68 20.64 14 22 C13.67 21.34 13.34 20.68 13 20 C11.7625 19.566875 10.525 19.13375 9.25 18.6875 C3.37426974 16.59578207 -0.33280934 12.61513824 -3 7 C-3.1875 4.1875 -3.1875 4.1875 -3 2 C-2.34 2 -1.68 2 -1 2 C-0.67 2.66 -0.34 3.32 0 4 C0 2.68 0 1.36 0 0 Z " fill="#B0D7C1" transform="translate(76,63)"/>
<path d="M0 0 C7.75 0.875 7.75 0.875 10 2 C9.67 3.32 9.34 4.64 9 6 C10.32 6.33 11.64 6.66 13 7 C13 6.01 13 5.02 13 4 C13.99 4.33 14.98 4.66 16 5 C15.34 7.31 14.68 9.62 14 12 C13.01 11.67 12.02 11.34 11 11 C11.33 10.01 11.66 9.02 12 8 C10.68 8 9.36 8 8 8 C8.33 9.32 8.66 10.64 9 12 C7.35 11.67 5.7 11.34 4 11 C4 10.34 4 9.68 4 9 C2.35 9 0.7 9 -1 9 C-0.01 8.67 0.98 8.34 2 8 C1.34 7.01 0.68 6.02 0 5 C-0.125 2.3125 -0.125 2.3125 0 0 Z " fill="#D8D8D8" transform="translate(61,128)"/>
<path d="M0 0 C1.37562854 1.28965176 2.70766393 2.62689293 4 4 C4 4.66 4 5.32 4 6 C4.66 6.33 5.32 6.66 6 7 C5.01 7.66 4.02 8.32 3 9 C3 8.01 3 7.02 3 6 C2.01 6.33 1.02 6.66 0 7 C0.33 8.32 0.66 9.64 1 11 C-2.87564767 14.61139896 -2.87564767 14.61139896 -5 16 C-7.375 15.8125 -7.375 15.8125 -9 15 C-8.01 14.34 -7.02 13.68 -6 13 C-7.98 12.34 -9.96 11.68 -12 11 C-10.61725283 7.65836101 -9.20955991 5.74233252 -6 4 C-3.25 4.3125 -3.25 4.3125 -1 5 C-0.67 3.35 -0.34 1.7 0 0 Z " fill="#D7D7D7" transform="translate(137,116)"/>
<path d="M0 0 C2.31 0 4.62 0 7 0 C7.33 1.98 7.66 3.96 8 6 C10.64 5.01 13.28 4.02 16 3 C16 3.66 16 4.32 16 5 C11.15770265 8.90507851 5.53147645 9.35648974 -0.4765625 8.75 C-4.20199842 8.07044166 -6.38084253 7.63791982 -9.0625 4.875 C-9.371875 4.25625 -9.68125 3.6375 -10 3 C-9.236875 3.309375 -8.47375 3.61875 -7.6875 3.9375 C-5.81210323 4.67893593 -3.91315348 5.36228217 -2 6 C-1.34 4.02 -0.68 2.04 0 0 Z " fill="#66756F" transform="translate(88,69)"/>
<path d="M0 0 C1.5 4.5 1.5 4.5 3 9 C-0.3340947 11.19097652 -3.04179141 12.43454163 -7 13 C-7.33 10.69 -7.66 8.38 -8 6 C-8.99 6 -9.98 6 -11 6 C-11.33 6.66 -11.66 7.32 -12 8 C-12 7.01 -12 6.02 -12 5 C-8.04 3.35 -4.08 1.7 0 0 Z " fill="#EAEAEA" transform="translate(123,125)"/>
<path d="M0 0 C1.65 0 3.3 0 5 0 C4.86722656 0.56847656 4.73445313 1.13695312 4.59765625 1.72265625 C3.5115242 6.47151097 2.61687618 11.16780324 2 16 C-0.64 16 -3.28 16 -6 16 C-6 15.01 -6 14.02 -6 13 C-4.68 13 -3.36 13 -2 13 C-2.33 12.01 -2.66 11.02 -3 10 C-3.66 9.67 -4.32 9.34 -5 9 C-5 7.68 -5 6.36 -5 5 C-3.35 5 -1.7 5 0 5 C0 3.35 0 1.7 0 0 Z " fill="#3D3838" transform="translate(53,47)"/>
<path d="M0 0 C0.99 0.33 1.98 0.66 3 1 C2.67 3.31 2.34 5.62 2 8 C3.65 7.34 5.3 6.68 7 6 C7.6875 7.75 7.6875 7.75 8 10 C6.5625 12.25 6.5625 12.25 5 14 C1.40365256 10.50640535 -1.83451967 6.88901869 -5 3 C-2.6875 1.4375 -2.6875 1.4375 0 0 Z " fill="#322E2F" transform="translate(120,31)"/>
<path d="M0 0 C1.65 1.32 3.3 2.64 5 4 C4.45773019 7.79588866 2.79872437 9.47211993 0 12 C-1.98 10.35 -3.96 8.7 -6 7 C-5 5 -5 5 -3 4.0625 C-0.65391779 3.1108154 -0.65391779 3.1108154 0 0 Z " fill="#B7B6B6" transform="translate(34,106)"/>
<path d="M0 0 C1.5625 1.125 1.5625 1.125 3 3 C2.6875 6 2.6875 6 2 9 C2 9.99 2 10.98 2 12 C2.66 12 3.32 12 4 12 C4.33 12.66 4.66 13.32 5 14 C7.64 14 10.28 14 13 14 C12.67 14.99 12.34 15.98 12 17 C10.37581255 17.08090971 8.75048255 17.13914995 7.125 17.1875 C6.22007813 17.22230469 5.31515625 17.25710937 4.3828125 17.29296875 C3.20332031 17.14794922 3.20332031 17.14794922 2 17 C0 14 0 14 0 11 C-0.66 10.67 -1.32 10.34 -2 10 C-2 9.34 -2 8.68 -2 8 C-1.34 8 -0.68 8 0 8 C0 7.34 0 6.68 0 6 C-0.66 6 -1.32 6 -2 6 C-2 4 -2 4 0 2 C0 1.34 0 0.68 0 0 Z " fill="#F5D7DA" transform="translate(84,51)"/>
<path d="M0 0 C1.99954746 -0.04254356 4.00041636 -0.04080783 6 0 C7 1 7 1 7.1875 3.9375 C7 7 7 7 5 9 C1.875 9.125 1.875 9.125 -1 9 C-0.67 6.03 -0.34 3.06 0 0 Z " fill="#555253" transform="translate(90,153)"/>
<path d="M0 0 C0.99 0 1.98 0 3 0 C3.33 1.32 3.66 2.64 4 4 C4.66 4 5.32 4 6 4 C6.33 2.68 6.66 1.36 7 0 C7.99 0.33 8.98 0.66 10 1 C10 3.64 10 6.28 10 9 C9.01 9 8.02 9 7 9 C6.67 8.34 6.34 7.68 6 7 C5.01 7.33 4.02 7.66 3 8 C1.68 8.33 0.36 8.66 -1 9 C-0.67 6.03 -0.34 3.06 0 0 Z " fill="#6E6C6D" transform="translate(24,153)"/>
<path d="M0 0 C3.74281699 2.38179263 6.97727468 4.74475735 10 8 C9.01 8 8.02 8 7 8 C11.97504047 11.24900602 14.88225104 12.49940808 21 12 C20.67 12.66 20.34 13.32 20 14 C14.40842545 14.71165494 11.70863088 14.2260826 7.1875 10.75 C4.36606467 8.41295268 1.96875339 6.10528926 0 3 C0 2.01 0 1.02 0 0 Z " fill="#ED3539" transform="translate(112,72)"/>
<path d="M0 0 C4.29 0 8.58 0 13 0 C13.33 1.32 13.66 2.64 14 4 C13.01 4 12.02 4 11 4 C11 3.01 11 2.02 11 1 C10.01 1.495 10.01 1.495 9 2 C8.67 2.99 8.34 3.98 8 5 C5.9375 5.6875 5.9375 5.6875 4 6 C4.33 4.68 4.66 3.36 5 2 C4.67 2 4.34 2 4 2 C4 4.31 4 6.62 4 9 C2.68 8.67 1.36 8.34 0 8 C0 5.36 0 2.72 0 0 Z " fill="#747273" transform="translate(86,133)"/>
<path d="M0 0 C0 0.99 0 1.98 0 3 C-0.99 3 -1.98 3 -3 3 C-2.67 3.99 -2.34 4.98 -2 6 C-1.34 6.33 -0.68 6.66 0 7 C0 6.34 0 5.68 0 5 C0.66 5 1.32 5 2 5 C2 6.32 2 7.64 2 9 C-0.64 9.99 -3.28 10.98 -6 12 C-6.33 10.68 -6.66 9.36 -7 8 C-6.01 7.67 -5.02 7.34 -4 7 C-4 6.34 -4 5.68 -4 5 C-5.32 5.33 -6.64 5.66 -8 6 C-8.33 5.01 -8.66 4.02 -9 3 C-2.25 0 -2.25 0 0 0 Z " fill="#5B5859" transform="translate(27,89)"/>
<path d="M0 0 C0.99 0 1.98 0 3 0 C2.67 1.32 2.34 2.64 2 4 C3.32 4.33 4.64 4.66 6 5 C6 4.01 6 3.02 6 2 C6.99 2.33 7.98 2.66 9 3 C8.34 5.31 7.68 7.62 7 10 C6.01 9.67 5.02 9.34 4 9 C4.33 8.01 4.66 7.02 5 6 C3.68 6 2.36 6 1 6 C1.33 7.32 1.66 8.64 2 10 C0.68 9.67 -0.64 9.34 -2 9 C-1.34 6.03 -0.68 3.06 0 0 Z " fill="#545152" transform="translate(68,130)"/>
<path d="M0 0 C1.65 0 3.3 0 5 0 C5.3125 2.25 5.3125 2.25 5 5 C2.5 7.3125 2.5 7.3125 0 9 C0.66 9.66 1.32 10.32 2 11 C-1 11 -1 11 -2.38671875 9.6875 C-3.59114583 8.125 -4.79557292 6.5625 -6 5 C-5 4 -5 4 -2.93359375 3.90234375 C-1.69802734 3.91974609 -1.69802734 3.91974609 -0.4375 3.9375 C0.38878906 3.94652344 1.21507812 3.95554687 2.06640625 3.96484375 C2.70449219 3.97644531 3.34257812 3.98804687 4 4 C4 3.34 4 2.68 4 2 C2.68 1.34 1.36 0.68 0 0 Z " fill="#535152" transform="translate(158,90)"/>
<path d="M0 0 C1.37562854 1.28965176 2.70766393 2.62689293 4 4 C4 4.66 4 5.32 4 6 C4.66 6.33 5.32 6.66 6 7 C5.01 7.66 4.02 8.32 3 9 C3 8.01 3 7.02 3 6 C2.01 6.33 1.02 6.66 0 7 C0.33 8.32 0.66 9.64 1 11 C0.01 11.66 -0.98 12.32 -2 13 C-2.45375 12.05125 -2.9075 11.1025 -3.375 10.125 C-4.80238254 6.99686321 -4.80238254 6.99686321 -7 5 C-5 5 -3 5 -1 5 C-0.67 3.35 -0.34 1.7 0 0 Z " fill="#5C5A5B" transform="translate(137,116)"/>
<path d="M0 0 C3.63195496 1.21065165 4.42896192 2.53691126 6.6875 5.5625 C7.31011719 6.38878906 7.93273437 7.21507813 8.57421875 8.06640625 C9.04472656 8.70449219 9.51523438 9.34257813 10 10 C7 10 7 10 4.8125 8 C4.214375 7.34 3.61625 6.68 3 6 C3.78741859 7.46063143 4.5800905 8.91843173 5.375 10.375 C5.81585938 11.18710938 6.25671875 11.99921875 6.7109375 12.8359375 C7.9443893 15.10814302 7.9443893 15.10814302 10 17 C8.203125 16.86328125 8.203125 16.86328125 6 16 C4.296875 13.41796875 4.296875 13.41796875 2.75 10.1875 C2.22921875 9.12917969 1.7084375 8.07085937 1.171875 6.98046875 C0 4 0 4 0 0 Z " fill="#ED3538" transform="translate(110,76)"/>
<path d="M0 0 C0.33 0 0.66 0 1 0 C1.65110451 4.34069676 0.84446503 6.7083839 -1.625 10.1875 C-4.36287931 13.60011734 -6.95912085 15.25507491 -11 17 C-11.66 17.99 -12.32 18.98 -13 20 C-13.66 20 -14.32 20 -15 20 C-15 18.35 -15 16.7 -15 15 C-13.948125 14.773125 -12.89625 14.54625 -11.8125 14.3125 C-7.76146322 13.12583266 -5.63614752 11.36841072 -3 8 C-1.78100072 5.36128267 -0.89437247 2.77726187 0 0 Z " fill="#F37525" transform="translate(108,65)"/>
<path d="M0 0 C1.32 0.33 2.64 0.66 4 1 C4.33 1.66 4.66 2.32 5 3 C5.33 2.01 5.66 1.02 6 0 C6.66 0 7.32 0 8 0 C8 2.97 8 5.94 8 9 C5 8 5 8 3.8125 5.9375 C3.544375 5.298125 3.27625 4.65875 3 4 C3 5.65 3 7.3 3 9 C2.01 9 1.02 9 0 9 C0 6.03 0 3.06 0 0 Z " fill="#636162" transform="translate(69,153)"/>
<path d="M0 0 C2.0625 1.75 2.0625 1.75 4 4 C3.9375 6.1875 3.9375 6.1875 3 8 C2.01 8.33 1.02 8.66 0 9 C-0.73323796 11.01508358 -0.73323796 11.01508358 -1 13 C-1.66 13 -2.32 13 -3 13 C-3 11.35 -3 9.7 -3 8 C-1.35 7.67 0.3 7.34 2 7 C2 6.01 2 5.02 2 4 C-0.91517292 5.07401108 -2.77810176 5.77810176 -5 8 C-5.33 7.01 -5.66 6.02 -6 5 C-5.195625 4.54625 -4.39125 4.0925 -3.5625 3.625 C-0.91143428 2.25274335 -0.91143428 2.25274335 0 0 Z " fill="#535151" transform="translate(29,98)"/>
<path d="M0 0 C1.32 1.32 2.64 2.64 4 4 C3.34 4 2.68 4 2 4 C2 5.32 2 6.64 2 8 C-0.5 10.75 -0.5 10.75 -3 13 C-3 11.68 -3 10.36 -3 9 C-4.32 8.67 -5.64 8.34 -7 8 C-6.67 7.01 -6.34 6.02 -6 5 C-4.35 5.33 -2.7 5.66 -1 6 C-1.020625 5.195625 -1.04125 4.39125 -1.0625 3.5625 C-1 1 -1 1 0 0 Z " fill="#2A2323" transform="translate(66,27)"/>
<path d="M0 0 C4 1 4 1 6 3 C6 2.01 6 1.02 6 0 C6.99 0.33 7.98 0.66 9 1 C8.67 3.64 8.34 6.28 8 9 C5 8 5 8 3.8125 5.9375 C3.544375 5.298125 3.27625 4.65875 3 4 C3 5.65 3 7.3 3 9 C2.01 9 1.02 9 0 9 C0 6.03 0 3.06 0 0 Z " fill="#696667" transform="translate(149,153)"/>
<path d="M0 0 C0.33 0 0.66 0 1 0 C0.67 2.31 0.34 4.62 0 7 C2.64 7 5.28 7 8 7 C8 7.33 8 7.66 8 8 C6.06403108 8.22211116 4.12610672 8.42722992 2.1875 8.625 C0.56908203 8.79902344 0.56908203 8.79902344 -1.08203125 8.9765625 C-4 9 -4 9 -7 7 C-5.68 5.35 -4.36 3.7 -3 2 C-3 2.66 -3 3.32 -3 4 C-2.01 4 -1.02 4 0 4 C0 2.68 0 1.36 0 0 Z " fill="#45484C" transform="translate(85,20)"/>
<path d="M0 0 C1.98 0 3.96 0 6 0 C6 0.66 6 1.32 6 2 C4.68 1.67 3.36 1.34 2 1 C2 1.66 2 2.32 2 3 C2.99 3 3.98 3 5 3 C4.67 3.99 4.34 4.98 4 6 C3.34 5.67 2.68 5.34 2 5 C2 5.66 2 6.32 2 7 C3.32 7 4.64 7 6 7 C6 7.66 6 8.32 6 9 C3.69 9 1.38 9 -1 9 C-0.67 6.03 -0.34 3.06 0 0 Z " fill="#615F60" transform="translate(82,153)"/>
<path d="M0 0 C0 3.3 0 6.6 0 10 C-0.99 9.67 -1.98 9.34 -3 9 C-3 8.01 -3 7.02 -3 6 C-3.99 5.67 -4.98 5.34 -6 5 C-6.33 5.66 -6.66 6.32 -7 7 C-7.66 6.34 -8.32 5.68 -9 5 C-7.87926138 4.16094435 -6.75325453 3.32892169 -5.625 2.5 C-4.99851562 2.0359375 -4.37203125 1.571875 -3.7265625 1.09375 C-2 0 -2 0 0 0 Z " fill="#656364" transform="translate(57,125)"/>
<path d="M0 0 C0.99 0.99 1.98 1.98 3 3 C2.34 3.66 1.68 4.32 1 5 C1.66 5.66 2.32 6.32 3 7 C2.01 7.33 1.02 7.66 0 8 C0 7.34 0 6.68 0 6 C-0.66 6.66 -1.32 7.32 -2 8 C-0.68 8.33 0.64 8.66 2 9 C2 9.66 2 10.32 2 11 C-1.68754757 10.50168276 -3.60490662 9.89932357 -6 7 C-4.55802132 4.11604263 -2.29355765 2.23474848 0 0 Z " fill="#504D4E" transform="translate(40,113)"/>
<path d="M0 0 C0.99 0 1.98 0 3 0 C3 2.31 3 4.62 3 7 C3.99 7 4.98 7 6 7 C6 4.69 6 2.38 6 0 C6.66 0 7.32 0 8 0 C8.125 3.375 8.125 3.375 8 7 C7.34 7.66 6.68 8.32 6 9 C3.375 8.625 3.375 8.625 1 8 C0.67 5.36 0.34 2.72 0 0 Z " fill="#696767" transform="translate(99,153)"/>
<path d="M0 0 C2.97 0.99 5.94 1.98 9 3 C9 3.66 9 4.32 9 5 C6.69 5.66 4.38 6.32 2 7 C2 7.66 2 8.32 2 9 C0.68 9.33 -0.64 9.66 -2 10 C-1.8125 8.125 -1.8125 8.125 -1 6 C1.5625 4.75 1.5625 4.75 4 4 C2.68 3.67 1.36 3.34 0 3 C0 2.01 0 1.02 0 0 Z " fill="#585656" transform="translate(156,81)"/>
<path d="M0 0 C0.99 0.33 1.98 0.66 3 1 C3.33 2.65 3.66 4.3 4 6 C4.99 6 5.98 6 7 6 C7 6.66 7 7.32 7 8 C4.625 8.125 4.625 8.125 2 8 C1.34 7.34 0.68 6.68 0 6 C0 6.99 0 7.98 0 9 C-0.99 9 -1.98 9 -3 9 C-3.33 6.36 -3.66 3.72 -4 1 C-3.34 1 -2.68 1 -2 1 C-2 1.99 -2 2.98 -2 4 C-1.01 4 -0.02 4 1 4 C0.67 2.68 0.34 1.36 0 0 Z " fill="#454243" transform="translate(99,133)"/>
<path d="M0 0 C2.38212548 0.92638213 4.69430342 1.83235994 6.9375 3.0625 C9.10482504 4.16527148 9.10482504 4.16527148 12.125 4.4375 C13.07375 4.623125 14.0225 4.80875 15 5 C15.99 6.485 15.99 6.485 17 8 C10.05570318 8.41665781 5.21554765 6.61375369 0 2 C0 1.34 0 0.68 0 0 Z " fill="#FCE7E7" transform="translate(114,72)"/>
<path d="M0 0 C0.99 0.33 1.98 0.66 3 1 C3.73046875 2.84765625 3.73046875 2.84765625 4.1875 5.0625 C4.34605469 5.79597656 4.50460938 6.52945313 4.66796875 7.28515625 C4.83232422 8.13400391 4.83232422 8.13400391 5 9 C4.01 9 3.02 9 2 9 C2 8.01 2 7.02 2 6 C1.34 6 0.68 6 0 6 C0 6.99 0 7.98 0 9 C-0.99 8.67 -1.98 8.34 -3 8 C-2.01 5.36 -1.02 2.72 0 0 Z " fill="#646263" transform="translate(120,153)"/>
<path d="M0 0 C1.15392455 2.3078491 1.53437166 4.47230331 2 7 C2.33 7 2.66 7 3 7 C3 4.69 3 2.38 3 0 C3.99 0.33 4.98 0.66 6 1 C6.125 3.875 6.125 3.875 6 7 C5.34 7.66 4.68 8.32 4 9 C-0.55555556 8.44444444 -0.55555556 8.44444444 -2 7 C-2.1875 4.5625 -2.1875 4.5625 -2 2 C-1.34 1.34 -0.68 0.68 0 0 Z " fill="#545152" transform="translate(61,153)"/>
<path d="M0 0 C2.31 0 4.62 0 7 0 C6.34 2.31 5.68 4.62 5 7 C4.67 7 4.34 7 4 7 C4 5.02 4 3.04 4 1 C3.34 1 2.68 1 2 1 C2 2.98 2 4.96 2 7 C0.35 7 -1.3 7 -3 7 C-2.01 4.69 -1.02 2.38 0 0 Z " fill="#B16D9A" transform="translate(88,69)"/>
<path d="M0 0 C1.65 0 3.3 0 5 0 C4.34 2.97 3.68 5.94 3 9 C2.01 8.34 1.02 7.68 0 7 C-1.65549531 6.61500109 -3.3222433 6.27206865 -5 6 C-5 5.67 -5 5.34 -5 5 C-3.35 5 -1.7 5 0 5 C0 3.35 0 1.7 0 0 Z " fill="#3F3939" transform="translate(53,47)"/>
<path d="M0 0 C1.65 0 3.3 0 5 0 C3.68 0.33 2.36 0.66 1 1 C1 3.64 1 6.28 1 9 C-1.97 8.505 -1.97 8.505 -5 8 C-5 7.34 -5 6.68 -5 6 C-4.34 6 -3.68 6 -3 6 C-2.67 5.34 -2.34 4.68 -2 4 C-2.99 4 -3.98 4 -5 4 C-5 3.34 -5 2.68 -5 2 C-3.68 2 -2.36 2 -1 2 C-0.67 1.34 -0.34 0.68 0 0 Z " fill="#ECECEC" transform="translate(89,152)"/>
<path d="M0 0 C0.99 0 1.98 0 3 0 C3.33 2.64 3.66 5.28 4 8 C2.125 7.75 2.125 7.75 0 7 C-1.25 4.9375 -1.25 4.9375 -2 3 C-1.34 2.01 -0.68 1.02 0 0 Z " fill="#ECECEC" transform="translate(112,131)"/>
<path d="M0 0 C0.99 0.99 1.98 1.98 3 3 C2.67 3.99 2.34 4.98 2 6 C3.65 5.34 5.3 4.68 7 4 C7.33 4.66 7.66 5.32 8 6 C5.69 6.66 3.38 7.32 1 8 C1 8.99 1 9.98 1 11 C0.01 10.67 -0.98 10.34 -2 10 C-1.34 6.7 -0.68 3.4 0 0 Z " fill="#5C5A5B" transform="translate(46,118)"/>
<path d="M0 0 C0.66 0.33 1.32 0.66 2 1 C2 1.99 2 2.98 2 4 C2.66 2.68 3.32 1.36 4 0 C5.65 0.33 7.3 0.66 9 1 C9 2.32 9 3.64 9 5 C8.34 4.67 7.68 4.34 7 4 C7.33 3.34 7.66 2.68 8 2 C7.01 2 6.02 2 5 2 C4.67 3.32 4.34 4.64 4 6 C2.35 5.67 0.7 5.34 -1 5 C-0.67 3.35 -0.34 1.7 0 0 Z " fill="#525051" transform="translate(17,83)"/>
<path d="M0 0 C0.66 0 1.32 0 2 0 C2.14695312 0.59167969 2.29390625 1.18335937 2.4453125 1.79296875 C4.13196493 7.73502586 5.90786002 10.49208135 11 14 C10.01 14.33 9.02 14.66 8 15 C0.17307692 7.59615385 0.17307692 7.59615385 -0.1875 2.1875 C-0.125625 1.465625 -0.06375 0.74375 0 0 Z " fill="#24A455" transform="translate(73,65)"/>
<path d="M0 0 C1.32 0.33 2.64 0.66 4 1 C4 1.66 4 2.32 4 3 C2.68 2.67 1.36 2.34 0 2 C0 2.66 0 3.32 0 4 C1.32 4.66 2.64 5.32 4 6 C3.67 7.32 3.34 8.64 3 10 C1.35 9.67 -0.3 9.34 -2 9 C-1.67 8.34 -1.34 7.68 -1 7 C0.485 7.99 0.485 7.99 2 9 C0.68 7.35 -0.64 5.7 -2 4 C-1.34 2.68 -0.68 1.36 0 0 Z " fill="#6A6768" transform="translate(49,152)"/>
<path d="M0 0 C0.99 0.33 1.98 0.66 3 1 C3.33 3.64 3.66 6.28 4 9 C3.01 9 2.02 9 1 9 C0.67 10.32 0.34 11.64 0 13 C0 8.71 0 4.42 0 0 Z " fill="#EC3033" transform="translate(102,83)"/>
<path d="M0 0 C-1.3125 3.4375 -1.3125 3.4375 -3 7 C-3.99 7.33 -4.98 7.66 -6 8 C-7.125 2.25 -7.125 2.25 -6 0 C-3 -1 -3 -1 0 0 Z " fill="#272829" transform="translate(132,46)"/>
<path d="M0 0 C0.99 0 1.98 0 3 0 C3 1.32 3 2.64 3 4 C3.99 4.33 4.98 4.66 6 5 C6 5.33 6 5.66 6 6 C1.71 6 -2.58 6 -7 6 C-6.67 5.34 -6.34 4.68 -6 4 C-3.36 4 -0.72 4 2 4 C1.34 3.67 0.68 3.34 0 3 C0 2.01 0 1.02 0 0 Z " fill="#292627" transform="translate(93,20)"/>
<path d="M0 0 C-0.99 0.33 -1.98 0.66 -3 1 C-2.65772428 3.97065509 -2.65772428 3.97065509 -2 7 C-1.34 7.33 -0.68 7.66 0 8 C-1.32 8.33 -2.64 8.66 -4 9 C-4.33 6.69 -4.66 4.38 -5 2 C-5.99 2 -6.98 2 -8 2 C-8.33 2.66 -8.66 3.32 -9 4 C-9 3.01 -9 2.02 -9 1 C-5.57367167 -0.61798838 -3.61944899 -1.34053666 0 0 Z " fill="#514E4F" transform="translate(120,129)"/>
<path d="M0 0 C0.66 0 1.32 0 2 0 C2.33 1.65 2.66 3.3 3 5 C5.64 4.01 8.28 3.02 11 2 C11 2.66 11 3.32 11 4 C7.28026121 6.84450614 4.62609198 7.3227506 0 7 C0 4.69 0 2.38 0 0 Z " fill="#6F7977" transform="translate(93,70)"/>
<path d="M0 0 C-2.25 2.5625 -2.25 2.5625 -5 5 C-7.3125 4.8125 -7.3125 4.8125 -9 4 C-8 1 -8 1 -6.1875 -0.25 C-3.66056586 -1.11637742 -2.47778006 -0.88492145 0 0 Z " fill="#EDECEC" transform="translate(55,125)"/>
<path d="M0 0 C1.65 1.32 3.3 2.64 5 4 C4.67 4.66 4.34 5.32 4 6 C2.68 5.34 1.36 4.68 0 4 C0 4.66 0 5.32 0 6 C-2 7.625 -2 7.625 -4 9 C-4.66 7.68 -5.32 6.36 -6 5 C-5.195625 4.731875 -4.39125 4.46375 -3.5625 4.1875 C-2.716875 3.795625 -1.87125 3.40375 -1 3 C-0.67 2.01 -0.34 1.02 0 0 Z " fill="#555253" transform="translate(34,106)"/>
<path d="M0 0 C3.96 0 7.92 0 12 0 C11.67 0.99 11.34 1.98 11 3 C7.7 3 4.4 3 1 3 C0.67 2.01 0.34 1.02 0 0 Z " fill="#434E93" transform="translate(85,65)"/>
<path d="M0 0 C0.99 0.33 1.98 0.66 3 1 C3 3.31 3 5.62 3 8 C2.01 8 1.02 8 0 8 C-0.79953138 4.71303767 -1.09658936 3.28976808 0 0 Z " fill="#ECECEC" transform="translate(62,152)"/>
<path d="M0 0 C1.89668064 2.84502097 3.23263478 5.57299885 4.625 8.6875 C5.07101563 9.68136719 5.51703125 10.67523438 5.9765625 11.69921875 C6.31429687 12.45847656 6.65203125 13.21773437 7 14 C6.01 14 5.02 14 4 14 C3.32880451 12.5437455 2.66318193 11.08492133 2 9.625 C1.62875 8.81289062 1.2575 8.00078125 0.875 7.1640625 C0 5 0 5 0 3 C-0.66 2.67 -1.32 2.34 -2 2 C-1.34 2 -0.68 2 0 2 C0 1.34 0 0.68 0 0 Z " fill="#FCE3E3" transform="translate(109,77)"/>
<path d="M0 0 C3 3 3 3 3.1875 5.6875 C3.125625 6.450625 3.06375 7.21375 3 8 C1.02 8.99 1.02 8.99 -1 10 C-0.67 6.7 -0.34 3.4 0 0 Z " fill="#F5904B" transform="translate(91,54)"/>
<path d="M0 0 C1.32 0 2.64 0 4 0 C3.125 4.875 3.125 4.875 2 6 C0.33382885 6.04063832 -1.33388095 6.042721 -3 6 C-3 5.01 -3 4.02 -3 3 C-2.34 3 -1.68 3 -1 3 C-1 3.66 -1 4.32 -1 5 C-0.34 4.67 0.32 4.34 1 4 C0.34 3.01 -0.32 2.02 -1 1 C-0.67 0.67 -0.34 0.34 0 0 Z " fill="#D5D5D5" transform="translate(41,116)"/>
<path d="M0 0 C2 1 4 2 6 3 C5.67 4.98 5.34 6.96 5 9 C4.34 8.34 3.68 7.68 3 7 C2.01 7.495 2.01 7.495 1 8 C0.67 5.36 0.34 2.72 0 0 Z " fill="#949293" transform="translate(144,153)"/>
<path d="M0 0 C2.54764436 1.27382218 3.5399926 2.56665433 5 5 C4.6875 7.25 4.6875 7.25 4 9 C2.35 8.67 0.7 8.34 -1 8 C-1 7.34 -1 6.68 -1 6 C-0.34 6 0.32 6 1 6 C1 6.66 1 7.32 1 8 C1.66 8 2.32 8 3 8 C2.505 7.4225 2.01 6.845 1.5 6.25 C0 4 0 4 0 0 Z " fill="#5D5A5B" transform="translate(41,153)"/>
<path d="M0 0 C0.33 0.66 0.66 1.32 1 2 C2.65 2 4.3 2 6 2 C6.33 3.65 6.66 5.3 7 7 C5.35 7.33 3.7 7.66 2 8 C2.99 7.01 3.98 6.02 5 5 C3.02 4.34 1.04 3.68 -1 3 C-0.67 2.01 -0.34 1.02 0 0 Z " fill="#524F50" transform="translate(126,124)"/>
<path d="M0 0 C0.99 0 1.98 0 3 0 C3.33 1.32 3.66 2.64 4 4 C0.25 7 0.25 7 -2 7 C-2 6.34 -2 5.68 -2 5 C-2.66 4.67 -3.32 4.34 -4 4 C-3.01 3.67 -2.02 3.34 -1 3 C-0.67 2.01 -0.34 1.02 0 0 Z " fill="#D8D8D8" transform="translate(22,85)"/>
<path d="M0 0 C0.375 2.1875 0.375 2.1875 0 5 C-1.83961648 6.99022836 -3.79186148 8.38989899 -6 10 C-6.33 9.01 -6.66 8.02 -7 7 C-5.8203125 5.17578125 -5.8203125 5.17578125 -4.125 3.3125 C-3.57070312 2.68988281 -3.01640625 2.06726563 -2.4453125 1.42578125 C-1 0 -1 0 0 0 Z " fill="#16A352" transform="translate(106,63)"/>
<path d="M0 0 C0 0.99 0 1.98 0 3 C-0.721875 2.814375 -1.44375 2.62875 -2.1875 2.4375 C-5.12826973 1.98004693 -7.14103058 2.26483643 -10 3 C-9.67 1.68 -9.34 0.36 -9 -1 C-5.22102349 -2.0497157 -3.35080929 -2.10976881 0 0 Z " fill="#F5D9DD" transform="translate(97,50)"/>
<path d="M0 0 C0.598125 0.639375 1.19625 1.27875 1.8125 1.9375 C3.90810337 4.20310389 3.90810337 4.20310389 7 5 C7 5.66 7 6.32 7 7 C6.34 7 5.68 7 5 7 C5 7.66 5 8.32 5 9 C1.85311922 7.42655961 0.20034593 4.72148049 -2 2 C-1.34 1.34 -0.68 0.68 0 0 Z " fill="#585657" transform="translate(142,111)"/>
<path d="M0 0 C0.66 0 1.32 0 2 0 C2 0.66 2 1.32 2 2 C3.32 1.34 4.64 0.68 6 0 C5.67 1.32 5.34 2.64 5 4 C6.32 4.33 7.64 4.66 9 5 C8.01 5.66 7.02 6.32 6 7 C5.401875 6.54625 4.80375 6.0925 4.1875 5.625 C2.49409348 4.36704087 0.75522914 3.17015276 -1 2 C-0.67 1.34 -0.34 0.68 0 0 Z " fill="#4B4849" transform="translate(146,105)"/>
<path d="M0 0 C-1 3 -1 3 -4.0625 4.6875 C-5.031875 5.120625 -6.00125 5.55375 -7 6 C-7.33 5.01 -7.66 4.02 -8 3 C-4.93882432 0.37613513 -4.26826873 0 0 0 Z " fill="#E9E8E8" transform="translate(29,98)"/>
<path d="M0 0 C2.05078125 0.03255208 4.1015625 0.06510417 6.15234375 0.09765625 C4.17234375 1.08765625 4.17234375 1.08765625 2.15234375 2.09765625 C2.92873695 5.17219185 2.92873695 5.17219185 5.15234375 7.09765625 C2.15234375 7.09765625 2.15234375 7.09765625 0.765625 5.78515625 C-0.43880208 4.22265625 -1.64322917 2.66015625 -2.84765625 1.09765625 C-1.84765625 0.09765625 -1.84765625 0.09765625 0 0 Z " fill="#787677" transform="translate(154.84765625,93.90234375)"/>
<path d="M0 0 C3.28788824 3.11016455 5.83735988 6.01618925 8 10 C4.63362603 8.5572683 2.33497429 6.83532593 0 4 C0 2.68 0 1.36 0 0 Z " fill="#11A04C" transform="translate(76,63)"/>
<path d="M0 0 C1.98 0.495 1.98 0.495 4 1 C3.34 1 2.68 1 2 1 C2.5259375 1.86625 2.5259375 1.86625 3.0625 2.75 C4.14917407 5.35801776 3.93065133 6.39417629 3 9 C1.68 8.67 0.36 8.34 -1 8 C-0.01 8 0.98 8 2 8 C1.34 7.01 0.68 6.02 0 5 C-0.125 2.3125 -0.125 2.3125 0 0 Z " fill="#524F50" transform="translate(61,128)"/>
<path d="M0 0 C1 3 2 6 3 9 C2.01 9 1.02 9 0 9 C-3 3.25 -3 3.25 -3 1 C-2.01 0.67 -1.02 0.34 0 0 Z " fill="#5A5858" transform="translate(123,125)"/>
<path d="M0 0 C0.99 0 1.98 0 3 0 C3.33 1.65 3.66 3.3 4 5 C3.01 5.66 2.02 6.32 1 7 C0 6 0 6 -0.0625 2.9375 C-0.041875 1.968125 -0.02125 0.99875 0 0 Z " fill="#EAEAEA" transform="translate(92,154)"/>
<path d="M0 0 C0.99 0 1.98 0 3 0 C3.33 2.97 3.66 5.94 4 9 C2.68 9 1.36 9 0 9 C0 6.03 0 3.06 0 0 Z " fill="#646262" transform="translate(54,153)"/>
<path d="M0 0 C2.64 1.32 5.28 2.64 8 4 C7.67 4.99 7.34 5.98 7 7 C6.34 7 5.68 7 5 7 C5 6.34 5 5.68 5 5 C4.01 5 3.02 5 2 5 C2 4.34 2 3.68 2 3 C0.68 2.67 -0.64 2.34 -2 2 C-1.34 1.34 -0.68 0.68 0 0 Z " fill="#4C494A" transform="translate(150,100)"/>
<path d="M0 0 C1.0625 1.8125 1.0625 1.8125 2 4 C1.67 4.99 1.34 5.98 1 7 C-1.31 7.33 -3.62 7.66 -6 8 C-6 7.34 -6 6.68 -6 6 C-4.02 5.67 -2.04 5.34 0 5 C0 3.35 0 1.7 0 0 Z " fill="#1CA556" transform="translate(48,70)"/>
<path d="M0 0 C0.99 0 1.98 0 3 0 C3 2.31 3 4.62 3 7 C2.01 7.495 2.01 7.495 1 8 C-0.35439668 5.29120665 -0.06501451 2.99066732 0 0 Z " fill="#F5F5F5" transform="translate(33,154)"/>
<path d="M0 0 C0.99 0.33 1.98 0.66 3 1 C3 3.64 3 6.28 3 9 C2.01 9 1.02 9 0 9 C0 6.03 0 3.06 0 0 Z " fill="#514E4F" transform="translate(31,153)"/>
<path d="M0 0 C1.65 0.33 3.3 0.66 5 1 C4.67 2.32 4.34 3.64 4 5 C2.35 5.33 0.7 5.66 -1 6 C-1.33 5.34 -1.66 4.68 -2 4 C-1.34 4 -0.68 4 0 4 C0 2.68 0 1.36 0 0 Z " fill="#C6C5C5" transform="translate(127,128)"/>
<path d="M0 0 C1.85776765 3.13498292 2.20140476 5.37471432 2 9 C1.01 9.33 0.02 9.66 -1 10 C-1.66 7.69 -2.32 5.38 -3 3 C-2.34 3 -1.68 3 -1 3 C-0.67 2.01 -0.34 1.02 0 0 Z " fill="#E4D0BA" transform="translate(108,59)"/>
<path d="M0 0 C1.66611905 -0.042721 3.33382885 -0.04063832 5 0 C6 1 6 1 6.0625 3.5625 C6.041875 4.366875 6.02125 5.17125 6 6 C5.34 5.34 4.68 4.68 4 4 C1.93125966 3.3574765 1.93125966 3.3574765 0 3 C0 2.01 0 1.02 0 0 Z " fill="#2A2728" transform="translate(48,53)"/>
<path d="M0 0 C1.35439668 2.70879335 1.06501451 5.00933268 1 8 C1.99 8.33 2.98 8.66 4 9 C-0.875 8.125 -0.875 8.125 -2 7 C-2.1875 4.5625 -2.1875 4.5625 -2 2 C-1.34 1.34 -0.68 0.68 0 0 Z " fill="#555354" transform="translate(141,153)"/>
<path d="M0 0 C0.66 0.66 1.32 1.32 2 2 C4.06874034 2.6425235 4.06874034 2.6425235 6 3 C6 3.66 6 4.32 6 5 C3.69 5 1.38 5 -1 5 C-0.67 3.35 -0.34 1.7 0 0 Z " fill="#252728" transform="translate(129,57)"/>
<path d="M0 0 C1.32 0 2.64 0 4 0 C4 0.99 4 1.98 4 3 C5.32 3.33 6.64 3.66 8 4 C8 4.66 8 5.32 8 6 C5.21788056 5.62403791 3.4120716 5.32681541 1.1875 3.5625 C0 2 0 2 0 0 Z " fill="#6C6A6B" transform="translate(34,118)"/>
<path d="M0 0 C0 0.99 0 1.98 0 3 C-2.64 3.99 -5.28 4.98 -8 6 C-8.33 5.01 -8.66 4.02 -9 3 C-2.25 0 -2.25 0 0 0 Z " fill="#494748" transform="translate(27,89)"/>
<path d="M0 0 C0.33 0.66 0.66 1.32 1 2 C-0.28965176 3.37562854 -1.62689293 4.70766393 -3 6 C-3.66 6 -4.32 6 -5 6 C-5 4.35 -5 2.7 -5 1 C-3.35 0.67 -1.7 0.34 0 0 Z " fill="#C48C67" transform="translate(98,79)"/>
<path d="M0 0 C0.99 0 1.98 0 3 0 C1.90931332 3.77545388 1.0916909 6.47043472 -2 9 C-2.99 8.67 -3.98 8.34 -5 8 C-4.175 7.4225 -3.35 6.845 -2.5 6.25 C-1.675 5.5075 -0.85 4.765 0 4 C0 2.68 0 1.36 0 0 Z " fill="#ED3437" transform="translate(135,67)"/>
<path d="M0 0 C1.37562854 1.28965176 2.70766393 2.62689293 4 4 C4 4.66 4 5.32 4 6 C4.66 6.33 5.32 6.66 6 7 C5.01 7.66 4.02 8.32 3 9 C1.68 6.36 0.36 3.72 -1 1 C-0.67 0.67 -0.34 0.34 0 0 Z " fill="#423F40" transform="translate(137,116)"/>
<path d="M0 0 C1.65 0 3.3 0 5 0 C4.67 0.99 4.34 1.98 4 3 C3.01 3 2.02 3 1 3 C0.67 3.99 0.34 4.98 0 6 C-1 3 -1 3 0 0 Z " fill="#343132" transform="translate(130,53)"/>
<path d="M0 0 C1.32 0 2.64 0 4 0 C4 0.99 4 1.98 4 3 C4.99 3.66 5.98 4.32 7 5 C5.35 5 3.7 5 2 5 C1.34 3.35 0.68 1.7 0 0 Z " fill="#E3E2E3" transform="translate(69,136)"/>
<path d="M0 0 C2.97 0.495 2.97 0.495 6 1 C5.01 1.33 4.02 1.66 3 2 C3 2.99 3 3.98 3 5 C1.68 4.67 0.36 4.34 -1 4 C-0.67 2.68 -0.34 1.36 0 0 Z " fill="#DBDADA" transform="translate(71,130)"/>
<path d="M0 0 C0.66 0.66 1.32 1.32 2 2 C0.35 3.98 -1.3 5.96 -3 8 C-3.66 7.34 -4.32 6.68 -5 6 C-4.34 6 -3.68 6 -3 6 C-2.690625 5.38125 -2.38125 4.7625 -2.0625 4.125 C-1.375 2.75 -0.6875 1.375 0 0 Z " fill="#F5F4F4" transform="translate(39,111)"/>
</svg>
